GSerif01-AuthorTextRegular05.ufo
<glyph name="four" format="1">
  <advance width="607"/>
  <unicode hex="0034"/>
  <outline>
    <contour>
      <point x="248" y="44" type="line"/>
      <point x="248" y="0" type="line"/>
      <point x="579" y="0" type="line"/>
      <point x="579" y="44" type="line"/>
      <point x="460" y="44" type="line"/>
      <point x="460" y="44" type="line"/>
      <point x="368" y="44" type="line"/>
      <point x="368" y="44" type="line"/>
    </contour>
    <contour>
      <point x="368" y="710" type="line"/>
      <point x="368" y="0" type="line"/>
      <point x="460" y="0" type="line"/>
      <point x="460" y="710" type="line"/>
    </contour>
    <contour>
      <point x="28" y="198" type="line"/>
      <point x="589" y="198" type="line"/>
      <point x="589" y="242" type="line"/>
      <point x="50" y="242" type="line"/>
      <point x="56" y="212" type="line"/>
      <point x="390" y="671" type="line"/>
      <point x="425" y="710" type="line"/>
      <point x="364" y="710" type="line"/>
      <point x="28" y="243" type="line"/>
    </contour>
  </outline>
</glyph>
<glyph name="I" format="1">
  <advance width="488"/>
  <unicode hex="0049"/>
  <outline>
    <contour>
      <point x="198" y="0" type="line"/>
      <point x="291" y="0" type="line"/>
      <point x="291" y="710" type="line"/>
      <point x="198" y="710" type="line"/>
    </contour>
    <contour>
      <point x="50" y="34" type="line"/>
      <point x="50" y="0" type="line"/>
      <point x="437" y="0" type="line"/>
      <point x="437" y="34" type="line"/>
      <point x="373" y="34" type="line"/>
      <point x="328" y="34"/>
      <point x="291" y="41"/>
      <point x="291" y="70" type="curve"/>
      <point x="198" y="70" type="line"/>
      <point x="198" y="41"/>
      <point x="160" y="34"/>
      <point x="115" y="34" type="curve"/>
    </contour>
    <contour>
      <point x="50" y="710" type="line"/>
      <point x="50" y="676" type="line"/>
      <point x="115" y="676" type="line"/>
      <point x="160" y="676"/>
      <point x="198" y="669"/>
      <point x="198" y="640" type="curve"/>
      <point x="291" y="640" type="line"/>
      <point x="291" y="669"/>
      <point x="328" y="676"/>
      <point x="373" y="676" type="curve"/>
      <point x="437" y="676" type="line"/>
      <point x="437" y="710" type="line"/>
    </contour>
  </outline>
</glyph>
<glyph name="L" format="1">
  <advance width="640"/>
  <unicode hex="004C"/>
  <outline>
    <contour>
      <point x="143" y="0" type="line"/>
      <point x="236" y="0" type="line"/>
      <point x="236" y="710" type="line"/>
      <point x="143" y="710" type="line"/>
    </contour>
    <contour>
      <point x="596" y="222" type="line"/>
      <point x="559" y="222" type="line"/>
      <point x="541" y="99" type="line" smooth="yes"/>
      <point x="535" y="58"/>
      <point x="499" y="44"/>
      <point x="403" y="44" type="curve" smooth="yes"/>
      <point x="191" y="44" type="line"/>
      <point x="143" y="70" type="line"/>
      <point x="143" y="41"/>
      <point x="106" y="34"/>
      <point x="60" y="34" type="curve" smooth="yes"/>
      <point x="50" y="34" type="line"/>
      <point x="50" y="0" type="line"/>
      <point x="596" y="0" type="line"/>
    </contour>
    <contour>
      <point x="50" y="710" type="line"/>
      <point x="50" y="676" type="line"/>
      <point x="60" y="676" type="line" smooth="yes"/>
      <point x="105" y="676"/>
      <point x="143" y="669"/>
      <point x="143" y="640" type="curve"/>
      <point x="236" y="655" type="line"/>
      <point x="236" y="671"/>
      <point x="275" y="676"/>
      <point x="314" y="676" type="curve" smooth="yes"/>
      <point x="326" y="676" type="line"/>
      <point x="326" y="710" type="line"/>
    </contour>
  </outline>
</glyph>
<glyph name="P" format="1">
  <advance width="675"/>
  <unicode hex="0050"/>
  <outline>
    <contour>
      <point x="141" y="0" type="line"/>
      <point x="234" y="0" type="line"/>
      <point x="234" y="710" type="line"/>
      <point x="141" y="710" type="line"/>
    </contour>
    <contour>
      <point x="190" y="666" type="line"/>
      <point x="352" y="666" type="line" smooth="yes"/>
      <point x="460" y="666"/>
      <point x="515" y="610"/>
      <point x="515" y="506" type="curve"/>
      <point x="515" y="403"/>
      <point x="460" y="339"/>
      <point x="347" y="339" type="curve" smooth="yes"/>
      <point x="190" y="339" type="line"/>
      <point x="190" y="296" type="line"/>
      <point x="348" y="296" type="line" smooth="yes"/>
      <point x="510" y="296"/>
      <point x="612" y="380"/>
      <point x="612" y="507" type="curve"/>
      <point x="612" y="634"/>
      <point x="515" y="710"/>
      <point x="353" y="710" type="curve" smooth="yes"/>
      <point x="49" y="710" type="line"/>
      <point x="49" y="676" type="line"/>
      <point x="59" y="676" type="line" smooth="yes"/>
      <point x="104" y="676"/>
      <point x="141" y="669"/>
      <point x="141" y="640" type="curve"/>
    </contour>
    <contour>
      <point x="336" y="0" type="line"/>
      <point x="336" y="34" type="line"/>
      <point x="318" y="34" type="line"/>
      <point x="288" y="34"/>
      <point x="234" y="37"/>
      <point x="234" y="59" type="curve"/>
      <point x="141" y="70" type="line"/>
      <point x="141" y="41"/>
      <point x="104" y="34"/>
      <point x="59" y="34" type="curve" smooth="yes"/>
      <point x="49" y="34" type="line"/>
      <point x="49" y="0" type="line"/>
    </contour>
  </outline>
</glyph>
<glyph name="Q" format="1">
  <advance width="750"/>
  <unicode hex="0051"/>
  <outline>
    <contour>
      <point x="375" y="-10" type="curve" smooth="yes"/>
      <point x="559" y="-10"/>
      <point x="695" y="135"/>
      <point x="695" y="355" type="curve" smooth="yes"/>
      <point x="695" y="574"/>
      <point x="559" y="720"/>
      <point x="375" y="720" type="curve" smooth="yes"/>
      <point x="189" y="720"/>
      <point x="55" y="575"/>
      <point x="55" y="355" type="curve" smooth="yes"/>
      <point x="55" y="136"/>
      <point x="189" y="-10"/>
    </contour>
    <contour>
      <point x="375" y="32" type="curve" smooth="yes"/>
      <point x="241" y="32"/>
      <point x="156" y="153"/>
      <point x="156" y="355" type="curve" smooth="yes"/>
      <point x="156" y="557"/>
      <point x="241" y="678"/>
      <point x="375" y="678" type="curve" smooth="yes"/>
      <point x="510" y="678"/>
      <point x="594" y="557"/>
      <point x="594" y="355" type="curve" smooth="yes"/>
      <point x="594" y="153"/>
      <point x="510" y="32"/>
    </contour>
    <contour>
      <point x="350" y="17" type="line"/>
      <point x="379" y="-122"/>
      <point x="467" y="-185"/>
      <point x="658" y="-181" type="curve"/>
      <point x="658" y="-96" type="line"/>
      <point x="511" y="-100"/>
      <point x="429" y="-94"/>
      <point x="400" y="24" type="curve"/>
    </contour>
  </outline>
</glyph>
<glyph name="T" format="1">
  <advance width="693"/>
  <unicode hex="0054"/>
  <outline>
    <contour>
      <point x="300" y="0" type="line"/>
      <point x="393" y="0" type="line"/>
      <point x="393" y="710" type="line"/>
      <point x="300" y="710" type="line"/>
    </contour>
    <contour>
      <point x="661" y="710" type="line"/>
      <point x="32" y="710" type="line"/>
      <point x="32" y="505" type="line"/>
      <point x="70" y="505" type="line"/>
      <point x="85" y="616" type="line" smooth="yes"/>
      <point x="91" y="655"/>
      <point x="126" y="666"/>
      <point x="212" y="666" type="curve" smooth="yes"/>
      <point x="481" y="666" type="line" smooth="yes"/>
      <point x="567" y="666"/>
      <point x="602" y="655"/>
      <point x="608" y="616" type="curve" smooth="yes"/>
      <point x="623" y="505" type="line"/>
      <point x="661" y="505" type="line"/>
    </contour>
    <contour>
      <point x="522" y="0" type="line"/>
      <point x="522" y="34" type="line"/>
      <point x="475" y="34" type="line" smooth="yes"/>
      <point x="430" y="34"/>
      <point x="393" y="41"/>
      <point x="393" y="70" type="curve"/>
      <point x="300" y="70" type="line"/>
      <point x="300" y="41"/>
      <point x="263" y="34"/>
      <point x="218" y="34" type="curve" smooth="yes"/>
      <point x="170" y="34" type="line"/>
      <point x="170" y="0" type="line"/>
    </contour>
  </outline>
</glyph>
<glyph name="c" format="1">
  <advance width="577"/>
  <unicode hex="0063"/>
  <outline>
    <contour>
      <point x="321" y="34" type="curve" smooth="yes"/>
      <point x="215" y="34"/>
      <point x="146" y="129"/>
      <point x="146" y="270" type="curve" smooth="yes"/>
      <point x="146" y="410"/>
      <point x="214" y="507"/>
      <point x="312" y="507" type="curve" smooth="yes"/>
      <point x="383" y="507"/>
      <point x="428" y="474"/>
      <point x="453" y="422" type="curve"/>
      <point x="462" y="464"/>
      <point x="447" y="488"/>
      <point x="420" y="487" type="curve"/>
      <point x="420" y="369" type="line"/>
      <point x="510" y="369" type="line"/>
      <point x="510" y="464" type="line"/>
      <point x="480" y="511"/>
      <point x="409" y="550"/>
      <point x="312" y="550" type="curve" smooth="yes"/>
      <point x="166" y="550"/>
      <point x="52" y="433"/>
      <point x="52" y="270" type="curve" smooth="yes"/>
      <point x="52" y="105"/>
      <point x="167" y="-12"/>
      <point x="316" y="-12" type="curve" smooth="yes"/>
      <point x="408" y="-12"/>
      <point x="489" y="31"/>
      <point x="526" y="115" type="curve"/>
      <point x="484" y="137" type="line"/>
      <point x="453" y="71"/>
      <point x="393" y="34"/>
    </contour>
  </outline>
</glyph>
<glyph name="e" format="1">
  <advance width="580"/>
  <unicode hex="0065"/>
  <outline>
    <contour>
      <point x="317" y="-12" type="curve" smooth="yes"/>
      <point x="413" y="-12"/>
      <point x="491" y="32"/>
      <point x="530" y="118" type="curve"/>
      <point x="488" y="140" type="line"/>
      <point x="456" y="73"/>
      <point x="399" y="36"/>
      <point x="323" y="36" type="curve" smooth="yes"/>
      <point x="226" y="36"/>
      <point x="143" y="114"/>
      <point x="143" y="264" type="curve" smooth="yes"/>
      <point x="143" y="411"/>
      <point x="213" y="502"/>
      <point x="306" y="502" type="curve"/>
      <point x="401" y="502"/>
      <point x="434" y="429"/>
      <point x="438" y="292" type="curve"/>
      <point x="465" y="311" type="line"/>
      <point x="113" y="311" type="line"/>
      <point x="114" y="265" type="line"/>
      <point x="533" y="265" type="line"/>
      <point x="534" y="448"/>
      <point x="459" y="550"/>
      <point x="306" y="550" type="curve"/>
      <point x="161" y="550"/>
      <point x="52" y="434"/>
      <point x="52" y="263" type="curve" smooth="yes"/>
      <point x="52" y="93"/>
      <point x="172" y="-12"/>
    </contour>
  </outline>
</glyph>
<glyph name="f" format="1">
  <advance width="457"/>
  <unicode hex="0066"/>
  <outline>
    <contour>
      <point x="36" y="33" type="line"/>
      <point x="36" y="0" type="line"/>
      <point x="372" y="0" type="line"/>
      <point x="372" y="33" type="line"/>
      <point x="341" y="33" type="line" smooth="yes"/>
      <point x="284" y="33"/>
      <point x="241" y="36"/>
      <point x="241" y="77" type="curve"/>
      <point x="152" y="69" type="line"/>
      <point x="152" y="40"/>
      <point x="116" y="33"/>
      <point x="58" y="33" type="curve"/>
    </contour>
    <contour>
      <point x="36" y="540" type="line"/>
      <point x="36" y="496" type="line"/>
      <point x="417" y="496" type="line"/>
      <point x="417" y="540" type="line"/>
    </contour>
    <contour>
      <point x="442" y="619" type="line"/>
      <point x="531" y="619" type="line"/>
      <point x="531" y="687" type="line"/>
      <point x="506" y="727"/>
      <point x="445" y="759"/>
      <point x="359" y="759" type="curve" smooth="yes"/>
      <point x="240" y="759"/>
      <point x="152" y="688"/>
      <point x="152" y="558" type="curve" smooth="yes"/>
      <point x="152" y="0" type="line"/>
      <point x="241" y="0" type="line"/>
      <point x="241" y="558" type="line" smooth="yes"/>
      <point x="241" y="667"/>
      <point x="285" y="715"/>
      <point x="359" y="715" type="curve" smooth="yes"/>
      <point x="413" y="715"/>
      <point x="455" y="694"/>
      <point x="477" y="646" type="curve"/>
      <point x="489" y="680"/>
      <point x="469" y="705"/>
      <point x="442" y="704" type="curve"/>
    </contour>
  </outline>
</glyph>
<glyph name="g" format="1">
  <advance width="650"/>
  <unicode hex="0067"/>
  <outline>
    <contour>
      <point x="304" y="-252" type="curve"/>
      <point x="341" y="-252" type="line"/>
      <point x="486" y="-252"/>
      <point x="612" y="-187"/>
      <point x="612" y="-68" type="curve" smooth="yes"/>
      <point x="612" y="20"/>
      <point x="550" y="63"/>
      <point x="434" y="63" type="curve" smooth="yes"/>
      <point x="238" y="63" type="line" smooth="yes"/>
      <point x="185" y="63"/>
      <point x="155" y="74"/>
      <point x="155" y="109" type="curve" smooth="yes"/>
      <point x="155" y="146"/>
      <point x="185" y="175"/>
      <point x="229" y="198" type="curve"/>
      <point x="247" y="222"/>
      <point x="207" y="241"/>
      <point x="191" y="215" type="curve"/>
      <point x="122" y="180"/>
      <point x="86" y="134"/>
      <point x="86" y="83" type="curve" smooth="yes"/>
      <point x="86" y="48"/>
      <point x="102" y="11"/>
      <point x="149" y="-11" type="curve"/>
      <point x="146" y="-17"/>
      <point x="139" y="-13"/>
      <point x="143" y="-23" type="curve"/>
      <point x="433" y="-23" type="line" smooth="yes"/>
      <point x="513" y="-23"/>
      <point x="536" y="-45"/>
      <point x="536" y="-89" type="curve" smooth="yes"/>
      <point x="536" y="-157"/>
      <point x="455" y="-207"/>
      <point x="340" y="-207" type="curve"/>
      <point x="305" y="-207" type="line"/>
      <point x="179" y="-207"/>
      <point x="121" y="-167"/>
      <point x="121" y="-110" type="curve" smooth="yes"/>
      <point x="121" y="-70"/>
      <point x="137" y="-34"/>
      <point x="186" y="-9" type="curve"/>
      <point x="162" y="12" type="line"/>
      <point x="86" y="-24"/>
      <point x="50" y="-61"/>
      <point x="50" y="-113" type="curve"/>
      <point x="50" y="-208"/>
      <point x="165" y="-252"/>
    </contour>
    <contour>
      <point x="195" y="359" type="curve" smooth="yes"/>
      <point x="195" y="451"/>
      <point x="242" y="506"/>
      <point x="316" y="506" type="curve" smooth="yes"/>
      <point x="390" y="506"/>
      <point x="438" y="451"/>
      <point x="438" y="359" type="curve" smooth="yes"/>
      <point x="438" y="267"/>
      <point x="389" y="216"/>
      <point x="316" y="216" type="curve" smooth="yes"/>
      <point x="242" y="216"/>
      <point x="195" y="267"/>
    </contour>
    <contour>
      <point x="316" y="172" type="curve" smooth="yes"/>
      <point x="436" y="172"/>
      <point x="528" y="245"/>
      <point x="528" y="359" type="curve" smooth="yes"/>
      <point x="528" y="472"/>
      <point x="436" y="550"/>
      <point x="316" y="550" type="curve" smooth="yes"/>
      <point x="195" y="550"/>
      <point x="105" y="472"/>
      <point x="105" y="359" type="curve" smooth="yes"/>
      <point x="105" y="245"/>
      <point x="195" y="172"/>
    </contour>
    <contour>
      <point x="457" y="463" type="curve"/>
      <point x="482" y="440" type="line"/>
      <point x="508" y="467"/>
      <point x="555" y="471"/>
      <point x="620" y="466" type="curve"/>
      <point x="620" y="549" type="line"/>
      <point x="569" y="555"/>
      <point x="502" y="528"/>
    </contour>
  </outline>
</glyph>
<glyph name="m" format="1">
  <advance width="978"/>
  <unicode hex="006D"/>
  <outline>
    <contour>
      <point x="371" y="500" type="curve" smooth="yes"/>
      <point x="432" y="500"/>
      <point x="452" y="465"/>
      <point x="452" y="382" type="curve" smooth="yes"/>
      <point x="452" y="0" type="line"/>
      <point x="541" y="0" type="line"/>
      <point x="541" y="389" type="line"/>
      <point x="541" y="500"/>
      <point x="478" y="550"/>
      <point x="386" y="550" type="curve" smooth="yes"/>
      <point x="290" y="550"/>
      <point x="236" y="493"/>
      <point x="175" y="390" type="curve"/>
      <point x="197" y="365" type="line"/>
      <point x="245" y="452"/>
      <point x="300" y="500"/>
    </contour>
    <contour>
      <point x="692" y="500" type="curve" smooth="yes"/>
      <point x="753" y="500"/>
      <point x="773" y="465"/>
      <point x="773" y="382" type="curve" smooth="yes"/>
      <point x="773" y="0" type="line"/>
      <point x="862" y="0" type="line"/>
      <point x="862" y="389" type="line"/>
      <point x="862" y="500"/>
      <point x="799" y="550"/>
      <point x="707" y="550" type="curve" smooth="yes"/>
      <point x="611" y="550"/>
      <point x="557" y="493"/>
      <point x="496" y="390" type="curve"/>
      <point x="518" y="365" type="line"/>
      <point x="566" y="452"/>
      <point x="621" y="500"/>
    </contour>
    <contour>
      <point x="45" y="0" type="line"/>
      <point x="293" y="0" type="line"/>
      <point x="293" y="32" type="line"/>
      <point x="292" y="32" type="line"/>
      <point x="264" y="32"/>
      <point x="220" y="35"/>
      <point x="220" y="42" type="curve"/>
      <point x="131" y="68" type="line"/>
      <point x="131" y="39"/>
      <point x="96" y="32"/>
      <point x="48" y="32" type="curve"/>
      <point x="45" y="32" type="line"/>
    </contour>
    <contour>
      <point x="45" y="540" type="line"/>
      <point x="45" y="504" type="line"/>
      <point x="57" y="502" type="line" smooth="yes"/>
      <point x="107" y="493"/>
      <point x="131" y="486"/>
      <point x="131" y="457" type="curve" smooth="yes"/>
      <point x="131" y="0" type="line"/>
      <point x="220" y="0" type="line"/>
      <point x="220" y="425" type="line"/>
      <point x="212" y="438" type="line"/>
      <point x="212" y="540" type="line"/>
    </contour>
    <contour>
      <point x="379" y="0" type="line"/>
      <point x="614" y="0" type="line"/>
      <point x="614" y="32" type="line"/>
      <point x="613" y="32" type="line"/>
      <point x="585" y="32"/>
      <point x="541" y="35"/>
      <point x="541" y="42" type="curve"/>
      <point x="452" y="42" type="line"/>
      <point x="452" y="35"/>
      <point x="408" y="32"/>
      <point x="380" y="32" type="curve"/>
      <point x="379" y="32" type="line"/>
    </contour>
    <contour>
      <point x="949" y="0" type="line"/>
      <point x="949" y="32" type="line"/>
      <point x="945" y="32" type="line"/>
      <point x="897" y="32"/>
      <point x="862" y="39"/>
      <point x="862" y="68" type="curve"/>
      <point x="773" y="42" type="line"/>
      <point x="773" y="37"/>
      <point x="729" y="32"/>
      <point x="701" y="32" type="curve"/>
      <point x="700" y="32" type="line"/>
      <point x="700" y="0" type="line"/>
    </contour>
  </outline>
</glyph>
<glyph name="u" format="1">
  <advance width="662"/>
  <unicode hex="0075"/>
  <outline>
    <contour>
      <point x="116" y="459" type="line" smooth="yes"/>
      <point x="116" y="488"/>
      <point x="93" y="496"/>
      <point x="41" y="504" type="curve" smooth="yes"/>
      <point x="28" y="506" type="line"/>
      <point x="28" y="541" type="line"/>
      <point x="205" y="541" type="line"/>
      <point x="205" y="157" type="line" smooth="yes"/>
      <point x="205" y="73"/>
      <point x="228" y="38"/>
      <point x="298" y="38" type="curve" smooth="yes"/>
      <point x="372" y="38"/>
      <point x="433" y="85"/>
      <point x="481" y="174" type="curve"/>
      <point x="505" y="149" type="line"/>
      <point x="442" y="43"/>
      <point x="383" y="-11"/>
      <point x="283" y="-11" type="curve" smooth="yes"/>
      <point x="185" y="-11"/>
      <point x="116" y="39"/>
      <point x="116" y="150" type="curve"/>
    </contour>
    <contour>
      <point x="457" y="459" type="line" smooth="yes"/>
      <point x="457" y="488"/>
      <point x="433" y="499"/>
      <point x="381" y="504" type="curve" smooth="yes"/>
      <point x="358" y="506" type="line"/>
      <point x="358" y="541" type="line"/>
      <point x="546" y="541" type="line"/>
      <point x="546" y="65" type="line"/>
      <point x="546" y="36"/>
      <point x="580" y="29"/>
      <point x="629" y="29" type="curve"/>
      <point x="634" y="29" type="line"/>
      <point x="634" y="0" type="line"/>
      <point x="466" y="0" type="line"/>
      <point x="466" y="102" type="line"/>
      <point x="457" y="115" type="line"/>
    </contour>
  </outline>
</glyph>
<glyph name="F.alt" format="1">
  <advance width="595"/>
  <outline>
    <contour>
      <point x="143" y="0" type="line"/>
      <point x="236" y="0" type="line"/>
      <point x="236" y="710" type="line"/>
      <point x="143" y="710" type="line"/>
    </contour>
    <contour>
      <point x="554" y="710" type="line"/>
      <point x="50" y="710" type="line"/>
      <point x="50" y="676" type="line"/>
      <point x="60" y="676" type="line" smooth="yes"/>
      <point x="105" y="676"/>
      <point x="143" y="669"/>
      <point x="143" y="640" type="curve"/>
      <point x="200" y="666" type="line"/>
      <point x="375" y="666" type="line" smooth="yes"/>
      <point x="461" y="666"/>
      <point x="494" y="655"/>
      <point x="501" y="616" type="curve" smooth="yes"/>
      <point x="514" y="525" type="line"/>
      <point x="554" y="525" type="line"/>
    </contour>
    <contour>
      <point x="50" y="0" type="line"/>
      <point x="341" y="0" type="line"/>
      <point x="341" y="34" type="line"/>
      <point x="325" y="34" type="line" smooth="yes"/>
      <point x="285" y="34"/>
      <point x="236" y="37"/>
      <point x="236" y="64" type="curve"/>
      <point x="143" y="70" type="line"/>
      <point x="143" y="41"/>
      <point x="106" y="34"/>
      <point x="60" y="34" type="curve" smooth="yes"/>
      <point x="50" y="34" type="line"/>
    </contour>
    <contour>
      <point x="225" y="375" type="line"/>
      <point x="225" y="331" type="line"/>
      <point x="436" y="331" type="line"/>
      <point x="436" y="375" type="line"/>
    </contour>
    <contour>
      <point x="460" y="260" type="line"/>
      <point x="460" y="447" type="line"/>
      <point x="425" y="447" type="line"/>
      <point x="425" y="441" type="line"/>
      <point x="425" y="406"/>
      <point x="415" y="375"/>
      <point x="386" y="375" type="curve"/>
      <point x="386" y="331" type="line"/>
      <point x="415" y="331"/>
      <point x="425" y="300"/>
      <point x="425" y="266" type="curve"/>
      <point x="425" y="260" type="line"/>
    </contour>
  </outline>
</glyph>
<glyph name="Q.alt2" format="1">
  <advance width="750"/>
  <outline>
    <contour>
      <point x="375" y="-10" type="curve" smooth="yes"/>
      <point x="559" y="-10"/>
      <point x="695" y="135"/>
      <point x="695" y="355" type="curve" smooth="yes"/>
      <point x="695" y="574"/>
      <point x="559" y="720"/>
      <point x="375" y="720" type="curve" smooth="yes"/>
      <point x="189" y="720"/>
      <point x="55" y="575"/>
      <point x="55" y="355" type="curve" smooth="yes"/>
      <point x="55" y="136"/>
      <point x="189" y="-10"/>
    </contour>
    <contour>
      <point x="375" y="32" type="curve" smooth="yes"/>
      <point x="241" y="32"/>
      <point x="156" y="153"/>
      <point x="156" y="355" type="curve" smooth="yes"/>
      <point x="156" y="557"/>
      <point x="241" y="678"/>
      <point x="375" y="678" type="curve" smooth="yes"/>
      <point x="510" y="678"/>
      <point x="594" y="557"/>
      <point x="594" y="355" type="curve" smooth="yes"/>
      <point x="594" y="153"/>
      <point x="510" y="32"/>
    </contour>
    <contour>
      <point x="188" y="-158" type="curve"/>
      <point x="224" y="-175" type="line"/>
      <point x="248" y="-122"/>
      <point x="286" y="-91"/>
      <point x="346" y="-91" type="curve" smooth="yes"/>
      <point x="420" y="-91"/>
      <point x="543" y="-136"/>
      <point x="671" y="-214" type="curve"/>
      <point x="711" y="-126" type="line"/>
      <point x="592" y="-70"/>
      <point x="468" y="-41"/>
      <point x="381" y="-41" type="curve" smooth="yes"/>
      <point x="284" y="-41"/>
      <point x="224" y="-81"/>
    </contour>
  </outline>
</glyph>
<glyph name="Q.alt5" format="1">
  <advance width="750"/>
  <outline>
    <contour>
      <point x="375" y="-10" type="curve" smooth="yes"/>
      <point x="559" y="-10"/>
      <point x="695" y="135"/>
      <point x="695" y="355" type="curve" smooth="yes"/>
      <point x="695" y="574"/>
      <point x="559" y="720"/>
      <point x="375" y="720" type="curve" smooth="yes"/>
      <point x="189" y="720"/>
      <point x="55" y="575"/>
      <point x="55" y="355" type="curve" smooth="yes"/>
      <point x="55" y="136"/>
      <point x="189" y="-10"/>
    </contour>
    <contour>
      <point x="375" y="32" type="curve" smooth="yes"/>
      <point x="241" y="32"/>
      <point x="156" y="153"/>
      <point x="156" y="355" type="curve" smooth="yes"/>
      <point x="156" y="557"/>
      <point x="241" y="678"/>
      <point x="375" y="678" type="curve" smooth="yes"/>
      <point x="510" y="678"/>
      <point x="594" y="557"/>
      <point x="594" y="355" type="curve" smooth="yes"/>
      <point x="594" y="153"/>
      <point x="510" y="32"/>
    </contour>
    <contour>
      <point x="351" y="11" type="line"/>
      <point x="430" y="-97"/>
      <point x="513" y="-152"/>
      <point x="676" y="-182" type="curve"/>
      <point x="701" y="-88" type="line"/>
      <point x="572" y="-78"/>
      <point x="468" y="-60"/>
      <point x="392" y="25" type="curve"/>
    </contour>
  </outline>
</glyph>
<glyph name="Q.alt6" format="1">
  <advance width="750"/>
  <outline>
    <contour>
      <point x="375" y="-10" type="curve" smooth="yes"/>
      <point x="559" y="-10"/>
      <point x="695" y="135"/>
      <point x="695" y="355" type="curve" smooth="yes"/>
      <point x="695" y="574"/>
      <point x="559" y="720"/>
      <point x="375" y="720" type="curve" smooth="yes"/>
      <point x="189" y="720"/>
      <point x="55" y="575"/>
      <point x="55" y="355" type="curve" smooth="yes"/>
      <point x="55" y="136"/>
      <point x="189" y="-10"/>
    </contour>
    <contour>
      <point x="375" y="32" type="curve" smooth="yes"/>
      <point x="241" y="32"/>
      <point x="156" y="130"/>
      <point x="156" y="355" type="curve" smooth="yes"/>
      <point x="156" y="557"/>
      <point x="241" y="678"/>
      <point x="375" y="678" type="curve" smooth="yes"/>
      <point x="510" y="678"/>
      <point x="594" y="557"/>
      <point x="594" y="355" type="curve" smooth="yes"/>
      <point x="594" y="141"/>
      <point x="527" y="32"/>
    </contour>
    <contour>
      <point x="770" y="-51" type="curve"/>
      <point x="770" y="30" type="line"/>
      <point x="636" y="19"/>
      <point x="593" y="44"/>
      <point x="555" y="93" type="curve" smooth="yes"/>
      <point x="500" y="163"/>
      <point x="471" y="234"/>
      <point x="375" y="234" type="curve" smooth="yes"/>
      <point x="298" y="234"/>
      <point x="250" y="187"/>
      <point x="250" y="128" type="curve" smooth="yes"/>
      <point x="250" y="92"/>
      <point x="261" y="59"/>
      <point x="300" y="38" type="curve"/>
      <point x="338" y="23" type="line"/>
      <point x="303" y="46"/>
      <point x="292" y="82"/>
      <point x="292" y="117" type="curve" smooth="yes"/>
      <point x="292" y="163"/>
      <point x="321" y="191"/>
      <point x="368" y="191" type="curve" smooth="yes"/>
      <point x="441" y="191"/>
      <point x="460" y="111"/>
      <point x="506" y="39" type="curve" smooth="yes"/>
      <point x="542" y="-17"/>
      <point x="606" y="-65"/>
    </contour>
  </outline>
</glyph>
<glyph name="S.srf" format="1">
  <advance width="618"/>
  <outline>
    <contour>
      <point x="322" y="32" type="curve" smooth="yes"/>
      <point x="217" y="32"/>
      <point x="131" y="95"/>
      <point x="105" y="219" type="curve"/>
      <point x="48" y="219" type="line"/>
      <point x="48" y="0" type="line"/>
      <point x="98" y="0" type="line"/>
      <point x="108" y="144" type="line"/>
      <point x="107" y="146"/>
      <point x="85" y="153"/>
      <point x="82" y="158" type="curve"/>
      <point x="116" y="40"/>
      <point x="221" y="-10"/>
      <point x="328" y="-10" type="curve" smooth="yes"/>
      <point x="455" y="-10"/>
      <point x="564" y="66"/>
      <point x="564" y="196" type="curve" smooth="yes"/>
      <point x="564" y="336"/>
      <point x="450" y="375"/>
      <point x="339" y="406" type="curve" smooth="yes"/>
      <point x="238" y="434"/>
      <point x="146" y="453"/>
      <point x="146" y="547" type="curve" smooth="yes"/>
      <point x="146" y="624"/>
      <point x="196" y="677"/>
      <point x="290" y="677" type="curve" smooth="yes"/>
      <point x="382" y="677"/>
      <point x="455" y="620"/>
      <point x="472" y="526" type="curve"/>
      <point x="526" y="526" type="line"/>
      <point x="526" y="710" type="line"/>
      <point x="479" y="710" type="line"/>
      <point x="470" y="590" type="line"/>
      <point x="474" y="588"/>
      <point x="498" y="575"/>
      <point x="500" y="578" type="curve"/>
      <point x="458" y="684"/>
      <point x="373" y="720"/>
      <point x="281" y="720" type="curve" smooth="yes"/>
      <point x="158" y="720"/>
      <point x="65" y="644"/>
      <point x="65" y="533" type="curve"/>
      <point x="65" y="395"/>
      <point x="175" y="360"/>
      <point x="283" y="330" type="curve" smooth="yes"/>
      <point x="383" y="302"/>
      <point x="477" y="277"/>
      <point x="477" y="175" type="curve" smooth="yes"/>
      <point x="477" y="74"/>
      <point x="415" y="32"/>
    </contour>
  </outline>
</glyph>
<glyph name="W.alt" format="1">
  <advance width="1041"/>
  <outline>
    <contour>
      <point x="161" y="710" type="line"/>
      <point x="71" y="710" type="line"/>
      <point x="264" y="0" type="line"/>
      <point x="329" y="0" type="line"/>
      <point x="335" y="43" type="line"/>
    </contour>
    <contour>
      <point x="13" y="710" type="line"/>
      <point x="13" y="676" type="line"/>
      <point x="20" y="676" type="line" smooth="yes"/>
      <point x="54" y="676"/>
      <point x="80" y="675"/>
      <point x="89" y="643" type="curve"/>
      <point x="172" y="665" type="line"/>
      <point x="172" y="672"/>
      <point x="218" y="676"/>
      <point x="260" y="676" type="curve" smooth="yes"/>
      <point x="277" y="676" type="line"/>
      <point x="277" y="710" type="line"/>
    </contour>
    <contour>
      <point x="965" y="705" type="line"/>
      <point x="919" y="710" type="line"/>
      <point x="721" y="0" type="line"/>
      <point x="770" y="-5" type="line"/>
    </contour>
    <contour>
      <point x="1028" y="710" type="line"/>
      <point x="795" y="710" type="line"/>
      <point x="795" y="676" type="line"/>
      <point x="820" y="676" type="line" smooth="yes"/>
      <point x="873" y="676"/>
      <point x="903" y="660"/>
      <point x="903" y="653" type="curve"/>
      <point x="941" y="619" type="line"/>
      <point x="952" y="659"/>
      <point x="983" y="676"/>
      <point x="1019" y="676" type="curve" smooth="yes"/>
      <point x="1028" y="676" type="line"/>
    </contour>
    <contour>
      <point x="494" y="710" type="line"/>
      <point x="305" y="0" type="line"/>
      <point x="355" y="0" type="line"/>
      <point x="526" y="672" type="line"/>
      <point x="510" y="677" type="line"/>
      <point x="680" y="0" type="line"/>
      <point x="745" y="0" type="line"/>
      <point x="751" y="43" type="line"/>
      <point x="585" y="710" type="line"/>
    </contour>
    <contour>
      <point x="679" y="710" type="line"/>
      <point x="400" y="710" type="line"/>
      <point x="400" y="676" type="line"/>
      <point x="417" y="676" type="line" smooth="yes"/>
      <point x="449" y="676"/>
      <point x="483" y="672"/>
      <point x="483" y="665" type="curve"/>
      <point x="596" y="665" type="line"/>
      <point x="596" y="672"/>
      <point x="630" y="676"/>
      <point x="661" y="676" type="curve" smooth="yes"/>
      <point x="679" y="676" type="line"/>
    </contour>
  </outline>
</glyph>
<glyph name="a.alt" format="1">
  <advance width="594"/>
  <outline>
    <contour>
      <point x="426" y="315" type="line"/>
      <point x="184" y="299"/>
      <point x="55" y="258"/>
      <point x="55" y="130" type="curve" smooth="yes"/>
      <point x="55" y="41"/>
      <point x="132" y="-11"/>
      <point x="229" y="-11" type="curve" smooth="yes"/>
      <point x="328" y="-11"/>
      <point x="393" y="39"/>
      <point x="427" y="112" type="curve"/>
      <point x="440" y="126"/>
      <point x="413" y="137"/>
      <point x="408" y="138" type="curve"/>
      <point x="383" y="82"/>
      <point x="324" y="34"/>
      <point x="252" y="34" type="curve" smooth="yes"/>
      <point x="189" y="34"/>
      <point x="149" y="69"/>
      <point x="149" y="132" type="curve" smooth="yes"/>
      <point x="149" y="231"/>
      <point x="233" y="263"/>
      <point x="425" y="274" type="curve"/>
    </contour>
    <contour>
      <point x="575" y="0" type="line"/>
      <point x="575" y="31" type="line"/>
      <point x="571" y="31" type="line" smooth="yes"/>
      <point x="515" y="31"/>
      <point x="489" y="42"/>
      <point x="489" y="67" type="curve" smooth="yes"/>
      <point x="489" y="383" type="line" smooth="yes"/>
      <point x="489" y="506"/>
      <point x="388" y="545"/>
      <point x="290" y="545" type="curve" smooth="yes"/>
      <point x="179" y="545"/>
      <point x="90" y="489"/>
      <point x="79" y="383" type="curve"/>
      <point x="169" y="383" type="line"/>
      <point x="178" y="467"/>
      <point x="221" y="502"/>
      <point x="290" y="502" type="curve" smooth="yes"/>
      <point x="356" y="502"/>
      <point x="402" y="473"/>
      <point x="402" y="378" type="curve" smooth="yes"/>
      <point x="402" y="107" type="line"/>
      <point x="411" y="105" type="line"/>
      <point x="411" y="0" type="line"/>
    </contour>
  </outline>
</glyph>
<glyph name="f.alt" format="1">
  <advance width="441"/>
  <outline>
    <contour>
      <point x="43" y="33" type="line"/>
      <point x="43" y="0" type="line"/>
      <point x="372" y="0" type="line"/>
      <point x="372" y="33" type="line"/>
      <point x="341" y="33" type="line" smooth="yes"/>
      <point x="284" y="33"/>
      <point x="241" y="31"/>
      <point x="241" y="54" type="curve"/>
      <point x="152" y="69" type="line"/>
      <point x="152" y="40"/>
      <point x="116" y="33"/>
      <point x="65" y="33" type="curve"/>
    </contour>
    <contour>
      <point x="43" y="540" type="line"/>
      <point x="43" y="496" type="line"/>
      <point x="406" y="496" type="line"/>
      <point x="406" y="540" type="line"/>
    </contour>
    <contour>
      <point x="241" y="594" type="line" smooth="yes"/>
      <point x="241" y="683"/>
      <point x="291" y="725"/>
      <point x="357" y="725" type="curve" smooth="yes"/>
      <point x="386" y="725"/>
      <point x="409" y="723"/>
      <point x="425" y="720" type="curve"/>
      <point x="425" y="767" type="line"/>
      <point x="404" y="769"/>
      <point x="383" y="770"/>
      <point x="355" y="770" type="curve" smooth="yes"/>
      <point x="257" y="770"/>
      <point x="152" y="732"/>
      <point x="152" y="595" type="curve"/>
      <point x="152" y="-3" type="line"/>
      <point x="241" y="-3" type="line"/>
    </contour>
  </outline>
</glyph>
<glyph name="five.oldalt2" format="1">
  <advance width="613"/>
  <outline>
    <contour>
      <point x="100" y="528" type="line"/>
      <point x="512" y="528" type="line"/>
      <point x="512" y="358" type="line"/>
      <point x="465" y="358" type="line"/>
      <point x="465" y="456" type="line"/>
      <point x="465" y="456" type="line"/>
      <point x="136" y="456" type="line"/>
      <point x="150" y="477" type="line"/>
      <point x="150" y="226" type="line"/>
      <point x="100" y="226" type="line"/>
    </contour>
    <contour>
      <point x="258" y="244" type="line" smooth="yes"/>
      <point x="468" y="244"/>
      <point x="562" y="161"/>
      <point x="562" y="30" type="curve" smooth="yes"/>
      <point x="562" y="-119"/>
      <point x="444" y="-192"/>
      <point x="309" y="-192" type="curve" smooth="yes"/>
      <point x="166" y="-192"/>
      <point x="61" y="-121"/>
      <point x="44" y="23" type="curve"/>
      <point x="140" y="23" type="line"/>
      <point x="158" y="-95"/>
      <point x="218" y="-144"/>
      <point x="309" y="-144" type="curve" smooth="yes"/>
      <point x="396" y="-144"/>
      <point x="467" y="-96"/>
      <point x="467" y="29" type="curve" smooth="yes"/>
      <point x="467" y="153"/>
      <point x="392" y="197"/>
      <point x="239" y="197" type="curve" smooth="yes"/>
      <point x="100" y="197" type="line"/>
      <point x="100" y="244" type="line"/>
    </contour>
  </outline>
</glyph>
<glyph name="k.alt" format="1">
  <advance width="663"/>
  <outline>
    <contour>
      <point x="516" y="0" type="line"/>
      <point x="592" y="0" type="line"/>
      <point x="600" y="33" type="line"/>
      <point x="347" y="316" type="line"/>
      <point x="343" y="296" type="line"/>
      <point x="562" y="511" type="line"/>
      <point x="552" y="533" type="line"/>
      <point x="517" y="533" type="line"/>
      <point x="273" y="297" type="line"/>
      <point x="273" y="276" type="line"/>
    </contour>
    <contour>
      <point x="45" y="0" type="line"/>
      <point x="305" y="0" type="line"/>
      <point x="305" y="32" type="line"/>
      <point x="300" y="32" type="line"/>
      <point x="262" y="32"/>
      <point x="221" y="37"/>
      <point x="221" y="57" type="curve"/>
      <point x="132" y="68" type="line"/>
      <point x="132" y="39"/>
      <point x="96" y="32"/>
      <point x="48" y="32" type="curve"/>
      <point x="45" y="32" type="line"/>
    </contour>
    <contour>
      <point x="45" y="750" type="line"/>
      <point x="45" y="715" type="line"/>
      <point x="57" y="713" type="line" smooth="yes"/>
      <point x="108" y="704"/>
      <point x="132" y="697"/>
      <point x="132" y="668" type="curve" smooth="yes"/>
      <point x="132" y="0" type="line"/>
      <point x="221" y="0" type="line"/>
      <point x="221" y="750" type="line"/>
    </contour>
    <contour>
      <point x="393" y="0" type="line"/>
      <point x="661" y="0" type="line"/>
      <point x="661" y="32" type="line"/>
      <point x="656" y="32" type="line"/>
      <point x="622" y="32"/>
      <point x="593" y="39"/>
      <point x="568" y="69" type="curve"/>
      <point x="477" y="44" type="line"/>
      <point x="477" y="37"/>
      <point x="428" y="32"/>
      <point x="400" y="32" type="curve"/>
      <point x="393" y="32" type="line"/>
    </contour>
    <contour>
      <point x="389" y="540" type="line"/>
      <point x="389" y="508" type="line"/>
      <point x="397" y="508" type="line"/>
      <point x="435" y="508"/>
      <point x="477" y="502"/>
      <point x="477" y="495" type="curve"/>
      <point x="516" y="465" type="line"/>
      <point x="548" y="496"/>
      <point x="573" y="508"/>
      <point x="607" y="508" type="curve"/>
      <point x="612" y="508" type="line"/>
      <point x="612" y="540" type="line"/>
    </contour>
    <contour>
      <point x="318" y="262" type="line"/>
      <point x="318" y="310" type="line"/>
      <point x="183" y="310" type="line"/>
      <point x="183" y="262" type="line"/>
    </contour>
  </outline>
</glyph>
<glyph name="one.old" format="1">
  <advance width="467"/>
  <outline>
    <contour>
      <point x="67" y="44" type="line"/>
      <point x="67" y="0" type="line"/>
      <point x="428" y="0" type="line"/>
      <point x="428" y="44" type="line"/>
      <point x="293" y="44" type="line"/>
      <point x="293" y="44" type="line"/>
      <point x="201" y="44" type="line"/>
      <point x="201" y="44" type="line"/>
    </contour>
    <contour>
      <point x="201" y="516" type="line"/>
      <point x="201" y="0" type="line"/>
      <point x="293" y="0" type="line"/>
      <point x="293" y="528" type="line"/>
      <point x="210" y="528" type="line"/>
      <point x="57" y="496" type="line"/>
      <point x="57" y="450" type="line"/>
      <point x="263" y="488" type="line"/>
    </contour>
  </outline>
</glyph>
<glyph name="seven.alt" format="1">
  <advance width="530"/>
  <outline>
    <contour>
      <point x="147" y="0" type="line"/>
      <point x="460" y="650" type="line"/>
      <point x="474" y="636" type="line"/>
      <point x="94" y="636" type="line"/>
      <point x="94" y="636" type="line"/>
      <point x="94" y="505" type="line"/>
      <point x="45" y="505" type="line"/>
      <point x="45" y="710" type="line"/>
      <point x="509" y="710" type="line"/>
      <point x="509" y="638" type="line"/>
      <point x="249" y="0" type="line"/>
    </contour>
  </outline>
</glyph>
